<?xml version="1.0" encoding="UTF-8" standalone="no"?>
<!-- Uploaded to: SVG Repo, www.svgrepo.com, Generator: SVG Repo Mixer Tools -->

<svg
   fill="#000000"
   height="470"
   width="800"
   version="1.1"
   id="Capa_1"
   viewBox="0 0 427.183 250.97002"
   xml:space="preserve"
   sodipodi:docname="coerce-fist-name.svg"
   inkscape:version="1.3.2 (091e20e, 2023-11-25)"
   inkscape:export-filename="coerce-fist-name.png"
   inkscape:export-xdpi="96"
   inkscape:export-ydpi="96"
   xmlns:inkscape="http://www.inkscape.org/namespaces/inkscape"
   xmlns:sodipodi="http://sodipodi.sourceforge.net/DTD/sodipodi-0.dtd"
   xmlns:xlink="http://www.w3.org/1999/xlink"
   xmlns="http://www.w3.org/2000/svg"
   xmlns:svg="http://www.w3.org/2000/svg"><defs
   id="defs1"><linearGradient
     id="linearGradient33"
     inkscape:collect="always"><stop
       style="stop-color:#7db643;stop-opacity:1;"
       offset="0"
       id="stop34" /><stop
       style="stop-color:#367533;stop-opacity:1;"
       offset="1"
       id="stop33" /></linearGradient><linearGradient
     id="linearGradient31"
     inkscape:collect="always"><stop
       style="stop-color:#16b0ed;stop-opacity:0.80000001;"
       offset="0"
       id="stop31" /><stop
       style="stop-color:#0f59b2;stop-opacity:0.83529413;"
       offset="1"
       id="stop32" /></linearGradient><linearGradient
     id="linearGradient29"
     inkscape:collect="always"><stop
       style="stop-color:#439240;stop-opacity:0.8392157;"
       offset="0"
       id="stop29" /><stop
       style="stop-color:#88c649;stop-opacity:0.80000001;"
       offset="1"
       id="stop30" /></linearGradient><linearGradient
     inkscape:collect="always"
     xlink:href="#linearGradient29"
     id="linearGradient30"
     x1="146.50421"
     y1="193.55711"
     x2="146.59399"
     y2="25.97279"
     gradientUnits="userSpaceOnUse"
     gradientTransform="matrix(0.46519697,0,0,0.46519697,111.64684,-0.76690796)" /><linearGradient
     inkscape:collect="always"
     xlink:href="#linearGradient31"
     id="linearGradient32"
     x1="69.88652"
     y1="57.768158"
     x2="69.976379"
     y2="196.14388"
     gradientUnits="userSpaceOnUse"
     gradientTransform="matrix(0.46519697,0,0,0.46519697,111.64684,-0.76690796)" /><linearGradient
     inkscape:collect="always"
     xlink:href="#linearGradient33"
     id="linearGradient34"
     x1="223.11964"
     y1="13.249201"
     x2="223.57565"
     y2="193.61227"
     gradientUnits="userSpaceOnUse"
     gradientTransform="matrix(0.46519697,0,0,0.46519697,111.64684,-0.76690796)" /></defs><sodipodi:namedview
   id="namedview1"
   pagecolor="#ffffff"
   bordercolor="#000000"
   borderopacity="0.25"
   inkscape:showpageshadow="2"
   inkscape:pageopacity="0.0"
   inkscape:pagecheckerboard="0"
   inkscape:deskcolor="#d1d1d1"
   inkscape:zoom="0.73126245"
   inkscape:cx="283.0721"
   inkscape:cy="-162.73227"
   inkscape:window-width="2552"
   inkscape:window-height="1379"
   inkscape:window-x="4"
   inkscape:window-y="29"
   inkscape:window-maximized="0"
   inkscape:current-layer="layer1"
   showgrid="false" />
<g
   inkscape:groupmode="layer"
   id="layer1"
   inkscape:label="Fist Color"><path
     id="path27-3"
     style="fill:#ffe7d1;fill-opacity:1;stroke:none;stroke-width:6.97376;stroke-dasharray:none"
     d="m 257.4011,197.90276 c 1.67005,0 3.02356,-1.35351 3.02356,-3.02356 0,-10.38273 5.0514,-22.41748 13.51286,-28.43619 l 0.13536,-0.0961 c 15.41056,-10.96142 24.61055,-28.79526 24.61055,-47.70643 V 76.372267 c 4.7e-4,-9.19414 -7.47961,-16.67469 -16.67468,-16.67469 h -10.05847 v -33.80253 c 0,-11.49407 -9.35112,-20.8451805 -20.84519,-20.8451805 -6.50159,0 -12.31618,2.99348 -16.1415,7.6724205 -2.97958,-7.8743805 -10.59503,-13.4890805 -19.50029,-13.4890805 -8.9676,0 -16.62946,5.69214 -19.56532,13.6525905 -3.82623,-4.6333605 -9.61259,-7.5909205 -16.07696,-7.5909205 -11.49408,0 -20.84519,9.3506205 -20.84519,20.8447005 v 0.26199 c -3.77971,-3.81368 -9.01658,-6.18005 -14.79758,-6.18005 -11.49407,0 -20.84518,9.3511 -20.84518,20.84518 v 64.966723 c 0,25.79328 8.82303,51.0387 24.86673,71.21567 v 17.68383 c 0,1.67005 1.3535,3.02355 3.02356,3.02355"
     inkscape:label="path27-3"
     sodipodi:nodetypes="csccscscsscscsscssscsc" /></g><path
   id="path27"
   style="display:inline;fill:#000000;fill-opacity:1;stroke:none;stroke-width:6.97376;stroke-dasharray:none"
   d="m 251.10606,11.097352 c 8.15909,0 14.7971,6.63804 14.7971,14.79758 v 33.80253 h -25.82784 c -1.28488,0 -2.54199,0.1153 -3.76733,0.32603 v -34.12856 c 0,-8.15954 6.63853,-14.79758 14.79807,-14.79758 z M 215.46328,-0.76690796 c -8.9676,0 -16.62946,5.69213996 -19.56532,13.65258996 -3.82623,-4.63336 -9.61259,-7.59092 -16.07696,-7.59092 -11.49408,0 -20.84519,9.35062 -20.84519,20.8447 v 0.26199 c -3.77971,-3.81368 -9.01658,-6.18005 -14.79758,-6.18005 -11.49407,0 -20.84518,9.3511 -20.84518,20.84518 V 106.0333 c 0,25.79328 8.82303,51.0387 24.86673,71.21567 v 17.68383 c 0,1.67005 1.3535,3.02355 3.02356,3.02355 1.67006,0 3.02404,-1.3535 3.02404,-3.02355 v -18.74781 c 0,-0.6936 -0.23899,-1.36558 -0.67535,-1.90428 -15.5999,-19.24006 -24.19138,-43.47758 -24.19138,-68.2479 V 90.352232 c 3.77972,3.81368 9.01659,6.18005 14.79758,6.18005 7.77344,0 14.56182,-4.27994 18.14524,-10.60429 3.71785,5.73309 10.16973,9.53643 17.49704,9.53643 7.54177,0 14.16049,-4.02554 17.82066,-10.041 3.66063,6.01453 10.27935,10.03955 17.82065,10.03955 2.17991,0 4.29962,-0.33654 6.33579,-0.98828 4.00813,5.804718 10.70376,9.618428 18.27623,9.618428 h 6.50899 v 0.95723 h -6.0476 c -22.06008,0 -40.00683,17.94771 -40.00683,40.00732 0,1.67006 1.35349,3.02356 3.02355,3.02356 1.67005,0 3.02404,-1.3535 3.02404,-3.02356 0,-18.72509 15.23415,-33.95972 33.95924,-33.95972 h 9.07116 c 1.67005,0 3.02404,-1.3535 3.02404,-3.02356 v -3.98127 h 18.29418 c 1.67006,0 3.02405,-1.3535 3.02405,-3.02356 0,-1.670058 -1.35399,-3.024048 -3.02405,-3.024048 h -30.85077 c -8.90573,0 -16.1512,-7.24545 -16.1512,-16.15071 0,-8.90525 7.24547,-16.15071 16.1512,-16.15071 h 41.9344 c 5.86055,0 10.62757,4.76798 10.62757,10.62806 v 42.268198 c 0,16.95735 -8.24962,32.94946 -22.06828,42.7786 l -0.13537,0.0961 c -10.05289,7.151 -16.05513,21.0276 -16.05513,33.36415 0,1.67005 1.35399,3.02356 3.02405,3.02356 1.67005,0 3.02356,-1.35351 3.02356,-3.02356 0,-10.38273 5.0514,-22.4176 13.51286,-28.43631 l 0.13536,-0.0961 c 15.41056,-10.96142 24.61055,-28.79526 24.61055,-47.70643 V 76.372152 c 4.7e-4,-9.19414 -7.47961,-16.67469 -16.67468,-16.67469 h -10.05847 v -33.80253 c 0,-11.49407 -9.35112,-20.84518 -20.84519,-20.84518 -6.50159,0 -12.31618,2.99348 -16.1415,7.67242 -2.97958,-7.87438 -10.59503,-13.48907996 -19.50029,-13.48907996 z"
   sodipodi:nodetypes="sscscssscsscssscsssscscscscscsccssssssscsssssssssccsssccscscsscs" /><path
   style="display:inline;fill:url(#linearGradient34);stroke-width:6.97351;stroke-dasharray:none"
   d="m 215.46281,5.280692 c 8.15908,0 14.79759,6.63803 14.79759,14.79758 v 41.91306 c -7.3301,3.629 -12.38437,11.1862 -12.38437,19.90444 0,2.47578 0.4136,4.856 1.16489,7.0815 -1.1602,0.28842 -2.35608,0.43956 -3.57907,0.43956 -8.147,0 -14.77663,-6.6184 -14.7971,-14.7612 0,-0.0117 0.001,-0.0233 0.001,-0.035 v -54.54241 c 0,-8.15955 6.63801,-14.79758 14.7971,-14.79758 z"
   id="path26" /><path
   style="display:inline;fill:url(#linearGradient30);fill-opacity:1;stroke-width:6.97351;stroke-dasharray:none"
   d="m 179.82102,11.342852 c 8.15908,0 14.79758,6.63755 14.79758,14.79709 v 4.7e-4 h -0.002 v 48.47835 c 0,0.0126 0.001,0.0248 0.001,0.0369 -0.0191,8.14326 -6.64916,14.76216 -14.79661,14.76216 -8.15908,0 -14.79758,-6.63755 -14.79758,-14.79709 v -48.48078 c 0,-8.15954 6.6385,-14.79709 14.79758,-14.79709 z"
   id="path28" /><path
   style="display:inline;fill:url(#linearGradient32);stroke-width:6.97351;stroke-dasharray:none"
   d="m 144.17874,26.269482 c 8.15955,0 14.79758,6.63804 14.79758,14.79758 v 34.62101 c 0,8.15954 -6.63803,14.79758 -14.79758,14.79758 -8.15908,0 -14.79758,-6.6385 -14.79758,-14.79758 v -34.62101 c 0,-8.15954 6.6385,-14.79758 14.79758,-14.79758 z"
   id="path29"
   inkscape:label="path29" />
<text
   xml:space="preserve"
   style="font-size:6.40774px;display:none;fill:#ff0000;fill-opacity:1;stroke:#000000;stroke-width:14.9904;stroke-dasharray:none;stroke-opacity:1;paint-order:fill markers stroke"
   x="28.478382"
   y="448.35196"
   id="text34"><tspan
     sodipodi:role="line"
     id="tspan34"
     style="stroke-width:14.9904"
     x="0"
     y="0" /></text><text
   xml:space="preserve"
   style="font-size:56.5627px;display:inline;fill:#ff0000;fill-opacity:1;stroke:#000000;stroke-width:0.589239;stroke-dasharray:none;stroke-opacity:1;paint-order:fill markers stroke"
   x="2.1044025"
   y="249.72585"
   id="text35"><tspan
     sodipodi:role="line"
     id="tspan35"
     style="font-style:normal;font-variant:normal;font-weight:normal;font-stretch:normal;font-size:56.5627px;font-family:'Stalinist One';-inkscape-font-specification:'Stalinist One';fill-rule:evenodd;stroke:#a92238;stroke-width:0.589239;stroke-dasharray:none;stroke-opacity:1"
     x="0"
     y="0">COERCE</tspan></text></svg>
